<svg id="visual" viewBox="0 0 960 540" width="960" height="540" xmlns="http://www.w3.org/2000/svg" xmlns:xlink="http://www.w3.org/1999/xlink" version="1.1"><rect x="0" y="0" width="960" height="540" fill="#002233"></rect><path d="M179 0L195.5 12.8C212 25.7 245 51.3 241.5 77C238 102.7 198 128.3 185 154C172 179.7 186 205.3 211.2 231.2C236.3 257 272.7 283 281.3 308.8C290 334.7 271 360.3 243.7 386C216.3 411.7 180.7 437.3 195.2 463C209.7 488.7 274.3 514.3 306.7 527.2L339 540L0 540L0 527.2C0 514.3 0 488.7 0 463C0 437.3 0 411.7 0 386C0 360.3 0 334.7 0 308.8C0 283 0 257 0 231.2C0 205.3 0 179.7 0 154C0 128.3 0 102.7 0 77C0 51.3 0 25.7 0 12.8L0 0Z" fill="#0066FF" stroke-linecap="round" stroke-linejoin="miter"></path></svg>